<svg width="86" height="48" viewBox="0 0 86 48" fill="none" xmlns="http://www.w3.org/2000/svg">
<path fill-rule="evenodd" clip-rule="evenodd" d="M34 18.1875C34 16.4271 35.4271 15 37.1875 15H47.8125C49.5729 15 51 16.4271 51 18.1875V28.8125C51 30.5729 49.5729 32 47.8125 32H37.1875C35.4271 32 34 30.5729 34 28.8125V18.1875ZM37.1875 17.125C36.6007 17.125 36.125 17.6007 36.125 18.1875V28.8125C36.125 29.3993 36.6007 29.875 37.1875 29.875H47.8125C48.3993 29.875 48.875 29.3993 48.875 28.8125V18.1875C48.875 17.6007 48.3993 17.125 47.8125 17.125H37.1875Z" fill="white"/>
</svg>
