<svg width="86" height="48" viewBox="0 0 86 48" fill="none" xmlns="http://www.w3.org/2000/svg">
<path d="M34.1594 21.5209C34.0707 21.4765 34.0193 21.4025 34.0053 21.299C33.9912 21.1905 34.0053 21.0968 34.0473 21.0129C35.0052 19.563 36.2247 18.4386 37.7152 17.6495C39.2057 16.8604 40.799 16.4609 42.4952 16.4609C44.1913 16.4609 45.7472 16.8407 47.2284 17.6002C48.7096 18.3596 49.9384 19.4545 50.9103 20.8748C50.9851 20.9932 51.0131 21.1017 50.9944 21.1905C50.9757 21.2792 50.9337 21.3631 50.8589 21.4272C50.7841 21.4962 50.7 21.5258 50.5972 21.5209C50.4944 21.5209 50.4103 21.4518 50.3402 21.3335C49.4478 20.0118 48.3077 19.0008 46.9153 18.2906C45.5229 17.5804 44.0511 17.2204 42.4905 17.2106C40.9205 17.2106 39.4534 17.5656 38.0797 18.2807C36.7106 18.9958 35.5799 20.0167 34.6874 21.3483C34.5987 21.4666 34.5052 21.5357 34.4118 21.5603C34.3183 21.5801 34.2295 21.5653 34.1501 21.516L34.1594 21.5209ZM45.3968 33.9784C43.6679 33.5691 42.2896 32.711 41.2523 31.4041C40.215 30.0972 39.6963 28.5239 39.6963 26.6893C39.6963 25.8805 39.9673 25.195 40.514 24.6279C41.0607 24.0657 41.7195 23.7845 42.4952 23.7845C43.2708 23.7845 43.9296 24.0607 44.481 24.6081C45.0323 25.1556 45.308 25.8312 45.308 26.6351C45.308 27.2318 45.5136 27.7349 45.9294 28.1442C46.3453 28.5535 46.8406 28.7557 47.4106 28.7557C47.9806 28.7557 48.4479 28.5535 48.8497 28.1442C49.2562 27.7349 49.4572 27.2318 49.4572 26.6351C49.4572 24.6673 48.775 23.0201 47.4059 21.6886C46.0369 20.357 44.3969 19.6912 42.4811 19.6912C40.5654 19.6912 38.9254 20.3669 37.5657 21.7182C36.206 23.0694 35.5285 24.7314 35.5285 26.7091C35.5285 27.222 35.5705 27.7891 35.6593 28.3957C35.7481 29.0023 35.907 29.6434 36.1406 30.3092C36.1826 30.4374 36.1826 30.541 36.1453 30.615C36.1079 30.689 36.0518 30.7481 35.9677 30.7876C35.8696 30.832 35.7715 30.8369 35.6687 30.8123C35.5659 30.7876 35.4911 30.7038 35.4444 30.5657C35.2668 30.0232 35.122 29.4264 35.0052 28.7656C34.8884 28.1047 34.8276 27.4143 34.8276 26.6943C34.8276 24.5539 35.5846 22.7144 37.0984 21.1757C38.6123 19.632 40.4066 18.8627 42.4905 18.8627C44.6071 18.8627 46.42 19.6123 47.9246 21.1165C49.4291 22.6207 50.1814 24.4602 50.1814 26.64C50.1814 27.434 49.9104 28.1097 49.373 28.6768C48.8357 29.239 48.1769 29.5201 47.4059 29.5201C46.635 29.5201 45.9434 29.244 45.3921 28.6965C44.8361 28.1491 44.5604 27.4784 44.5604 26.6943C44.5604 26.0926 44.3595 25.5797 43.953 25.1605C43.5465 24.7413 43.0605 24.5342 42.4905 24.5342C41.9204 24.5342 41.4392 24.7413 41.028 25.1605C40.6168 25.5797 40.4112 26.0877 40.4112 26.6943C40.4112 28.3858 40.8785 29.8062 41.8176 30.9503C42.7568 32.0994 44.009 32.8786 45.579 33.2929C45.7005 33.3176 45.7752 33.3669 45.8126 33.4507C45.85 33.5346 45.8593 33.6184 45.8453 33.7121C45.822 33.8206 45.7752 33.9044 45.7051 33.9538C45.6351 34.0031 45.5323 34.0129 45.3921 33.9834L45.3968 33.9784ZM37.0284 16.1848C36.9069 16.2439 36.8087 16.2637 36.734 16.2341C36.6592 16.2045 36.5985 16.1502 36.5518 16.0763C36.5097 16.0269 36.4957 15.9431 36.505 15.8247C36.5144 15.7064 36.5611 15.6275 36.6405 15.588C37.5377 15.0505 38.4862 14.651 39.4861 14.3945C40.486 14.1381 41.4859 14 42.4952 14C43.5184 14 44.5183 14.1282 45.4996 14.3896C46.4808 14.6461 47.4199 15.0258 48.3171 15.519C48.4292 15.5683 48.4946 15.6472 48.5133 15.7508C48.532 15.8543 48.518 15.9431 48.4759 16.022C48.4292 16.1009 48.3591 16.1601 48.275 16.2094C48.1909 16.2538 48.0928 16.2489 47.99 16.1897C47.1443 15.7458 46.2518 15.4006 45.322 15.1491C44.3922 14.8976 43.4483 14.7743 42.4905 14.7743C41.5326 14.7743 40.5841 14.8926 39.6636 15.1244C38.7432 15.3562 37.8647 15.7113 37.0237 16.1897L37.0284 16.1848ZM40.0514 33.6283C39.1497 32.6518 38.4581 31.6063 37.9815 30.4868C37.5049 29.3673 37.2666 28.1047 37.2666 26.6943C37.2666 25.2049 37.7759 23.9374 38.7899 22.8968C39.8038 21.8562 41.0373 21.3384 42.4905 21.3384C43.9436 21.3384 45.1725 21.8513 46.2051 22.8771C47.2424 23.9029 47.761 25.1556 47.761 26.64C47.761 26.7682 47.733 26.8718 47.6769 26.9507C47.6209 27.0296 47.5321 27.0691 47.4106 27.0691C47.2798 27.0691 47.1817 27.0296 47.1162 26.9507C47.0508 26.8718 47.0181 26.7682 47.0181 26.64C47.0181 25.3528 46.5742 24.2728 45.6818 23.3999C44.794 22.522 43.7287 22.0831 42.4858 22.0831C41.2429 22.0831 40.1869 22.5319 39.3085 23.4245C38.4301 24.3172 37.9909 25.4071 37.9909 26.6943C37.9909 28.0456 38.2011 29.2094 38.6217 30.1909C39.0422 31.1723 39.701 32.1537 40.5935 33.1302C40.6822 33.2239 40.7243 33.3176 40.7196 33.4063C40.7196 33.4951 40.6869 33.574 40.6308 33.6431C40.5748 33.722 40.4813 33.7664 40.3598 33.7762C40.2383 33.7861 40.1309 33.7368 40.0421 33.6283H40.0514ZM47.4106 31.8972C45.9621 31.8972 44.7193 31.4238 43.682 30.4818C42.6447 29.5399 42.1307 28.2626 42.1307 26.6499C42.1307 26.5315 42.1634 26.4329 42.2241 26.354C42.2849 26.2751 42.3737 26.2405 42.4858 26.2405C42.5979 26.2405 42.6867 26.28 42.7475 26.354C42.8082 26.4329 42.8409 26.5315 42.8409 26.6499C42.8409 28.0456 43.2941 29.1453 44.2053 29.9492C45.1164 30.7531 46.1864 31.1525 47.4199 31.1525C47.5601 31.1525 47.7283 31.1378 47.9152 31.1131C48.1021 31.0884 48.289 31.0687 48.4759 31.0539C48.5787 31.049 48.6675 31.0736 48.7376 31.1377C48.8077 31.2019 48.8404 31.2709 48.8357 31.3498C48.8404 31.4534 48.8264 31.5372 48.7843 31.6013C48.7423 31.6654 48.6815 31.7098 48.5927 31.7345C48.3498 31.8183 48.1161 31.8627 47.8965 31.8775C47.6769 31.8923 47.5181 31.8972 47.4199 31.8972H47.4106Z" fill="white"/>
</svg>
