<svg width="86" height="48" viewBox="0 0 86 48" fill="none" xmlns="http://www.w3.org/2000/svg">
<path fill-rule="evenodd" clip-rule="evenodd" d="M38.3893 24.6234C38.3893 27.1683 40.4546 29.2338 42.9994 29.2338C45.5441 29.2338 47.6094 27.1683 47.6094 24.6234C47.6094 22.0784 45.5441 20.0129 42.9994 20.0129C40.4546 20.0129 38.3893 22.0784 38.3893 24.6234ZM38.5461 17.2465L40.2334 15.4023H45.7654L47.4527 17.2465H50.3755C51.3943 17.2465 52.2195 18.0718 52.2195 19.0907V30.1559C52.2195 31.1748 51.3943 32.0001 50.3755 32.0001H35.6233C34.6045 32.0001 33.7793 31.1748 33.7793 30.1559V19.0907C33.7793 18.0718 34.6045 17.2465 35.6233 17.2465H38.5461ZM45.9498 24.6234C45.9498 22.9936 44.6286 21.6727 42.9994 21.6727C41.3697 21.6727 40.049 22.9936 40.049 24.6234C40.049 26.2527 41.3697 27.5741 42.9994 27.5741C44.6286 27.5741 45.9498 26.2527 45.9498 24.6234Z" fill="white"/>
</svg>
