<svg width="86" height="48" viewBox="0 0 86 48" fill="none" xmlns="http://www.w3.org/2000/svg">
<path fill-rule="evenodd" clip-rule="evenodd" d="M44.6953 28.9761C44.9602 29.3173 45.3196 29.5532 45.7188 29.6621L45.3668 30.7038C45.2905 30.9288 45.2615 31.1647 45.2724 31.4007C44.3251 31.7927 43.287 32.0104 42.1981 32.0104C37.7736 32.0104 34.1875 28.4244 34.1875 23.9998C34.1875 19.5753 37.7736 15.9893 42.1981 15.9893C45.737 15.9893 48.7387 18.2832 49.7985 21.4627C49.2432 21.4918 48.7314 21.7422 48.383 22.1669L44.7316 26.6168C44.169 27.3101 44.1545 28.2755 44.6953 28.9761ZM40.1945 23.9998C40.1945 25.1069 41.0911 26.0034 42.1981 26.0034C43.3051 26.0034 44.2016 25.1069 44.2016 23.9998C44.2016 22.8928 43.3051 21.9963 42.1981 21.9963C41.0911 21.9963 40.1945 22.8928 40.1945 23.9998ZM50.862 26.8527C50.9128 26.8527 50.9564 26.8709 50.9818 26.9036C51.0072 26.9326 51.0072 26.9725 50.9818 27.0015L47.3304 31.3607C47.305 31.3898 47.2614 31.4079 47.2142 31.4079C47.1997 31.4079 47.1816 31.4043 47.1634 31.4007C47.1017 31.3789 47.069 31.3317 47.0836 31.2845L47.5264 29.9815L48.2269 27.9162H46.2524C46.2016 27.9162 46.158 27.8981 46.1326 27.8654C46.1072 27.8364 46.1072 27.7964 46.1326 27.7674L49.7804 23.3175C49.8058 23.2884 49.8493 23.2703 49.8965 23.2703C49.912 23.2703 49.9249 23.2729 49.9396 23.276C49.9421 23.2765 49.9447 23.277 49.9473 23.2776C50.009 23.2993 50.0417 23.3465 50.0272 23.3937L48.8839 26.8527H50.862Z" fill="white"/>
</svg>
