<svg width="86" height="48" viewBox="0 0 86 48" fill="none" xmlns="http://www.w3.org/2000/svg">
<path fill-rule="evenodd" clip-rule="evenodd" d="M48.2879 28.061C49.0776 27.2805 49.4717 26.2702 49.4717 25.03V23.5245C49.4717 22.2905 49.0776 21.2802 48.2879 20.495C47.4982 19.7099 46.4735 19.3166 45.214 19.3166H41.9932V29.2333H45.214C46.4735 29.2333 47.4982 28.8431 48.2879 28.061ZM39.7276 29.2333H38.0693V19.3166H39.7276V29.2333ZM35.6461 15.9523H51.2737C51.6523 15.9523 51.9599 16.2577 51.9599 16.6387V32.235C51.9599 32.613 51.6523 32.9199 51.2737 32.9199H35.6461C35.2674 32.9199 34.9599 32.613 34.9599 32.235V16.6387C34.9599 16.2577 35.2674 15.9523 35.6461 15.9523ZM43.6517 20.6451H45.1662C45.9899 20.6451 46.6359 20.9135 47.1073 21.4488C47.5787 21.9825 47.8136 22.6689 47.8136 23.508V25.0274C47.8136 25.8758 47.5787 26.5668 47.1073 27.1021C46.6359 27.6358 45.9899 27.9042 45.1662 27.9042H43.6517V20.6451Z" fill="#FEFEFE"/>
</svg>
