<svg width="86" height="48" viewBox="0 0 86 48" fill="none" xmlns="http://www.w3.org/2000/svg">
<path d="M43 32C41.8933 32 40.8533 31.79 39.88 31.37C38.9067 30.95 38.06 30.38 37.34 29.66C36.62 28.94 36.05 28.0933 35.63 27.12C35.21 26.1467 35 25.1067 35 24C35 22.88 35.21 21.8367 35.63 20.87C36.05 19.9033 36.62 19.06 37.34 18.34L38.46 19.46C37.8733 20.0467 37.4167 20.7267 37.09 21.5C36.7633 22.2733 36.6 23.1067 36.6 24C36.6 25.7867 37.22 27.3 38.46 28.54C39.7 29.78 41.2133 30.4 43 30.4C44.7867 30.4 46.3 29.78 47.54 28.54C48.78 27.3 49.4 25.7867 49.4 24C49.4 23.1067 49.2367 22.2733 48.91 21.5C48.5833 20.7267 48.1267 20.0467 47.54 19.46L48.66 18.34C49.38 19.06 49.95 19.9033 50.37 20.87C50.79 21.8367 51 22.88 51 24C51 25.1067 50.79 26.1467 50.37 27.12C49.95 28.0933 49.38 28.94 48.66 29.66C47.94 30.38 47.0933 30.95 46.12 31.37C45.1467 31.79 44.1067 32 43 32ZM42.2 24.8V16H43.8V24.8H42.2Z" fill="#E8EAED"/>
</svg>
