<svg width="86" height="48" viewBox="0 0 86 48" fill="none" xmlns="http://www.w3.org/2000/svg">
<path d="M43.4333 32.0708L34.9292 23.5667C34.5139 23.1514 34.3063 22.6639 34.3063 22.1042C34.3063 21.5444 34.5139 21.0569 34.9292 20.6417L39.6417 15.9292C40.0569 15.5139 40.5444 15.3063 41.1042 15.3063C41.6639 15.3063 42.1514 15.5139 42.5667 15.9292L51.0708 24.4333C51.4861 24.8486 51.6938 25.3361 51.6938 25.8958C51.6938 26.4556 51.4861 26.9431 51.0708 27.3583L46.3583 32.0708C45.9431 32.4861 45.4556 32.6938 44.8958 32.6938C44.3361 32.6938 43.8486 32.4861 43.4333 32.0708ZM44.8958 30.5L49.5 25.8958L41.1042 17.5L36.5 22.1042L44.8958 30.5ZM43 37C41.2125 37 39.5288 36.6615 37.949 35.9844C36.3691 35.3073 34.9878 34.3774 33.8052 33.1948C32.6226 32.0122 31.6927 30.6309 31.0156 29.051C30.3385 27.4712 30 25.7875 30 24H32.1667C32.1667 25.2819 32.3833 26.5097 32.8167 27.6833C33.25 28.8569 33.8503 29.9132 34.6177 30.8521C35.3851 31.791 36.3014 32.5899 37.3667 33.249C38.4319 33.908 39.5965 34.3729 40.8604 34.6438L38.0167 31.8L39.5333 30.2833L45.925 36.675C45.4556 36.7833 44.9726 36.8646 44.476 36.9188C43.9795 36.9729 43.4875 37 43 37ZM53.8333 24C53.8333 22.7181 53.6167 21.4903 53.1833 20.3167C52.75 19.1431 52.1497 18.0868 51.3823 17.1479C50.6149 16.209 49.6986 15.4101 48.6333 14.751C47.5681 14.092 46.4035 13.6271 45.1396 13.3563L47.9833 16.2L46.4667 17.7167L40.075 11.325C40.5444 11.2167 41.0274 11.1354 41.524 11.0812C42.0205 11.0271 42.5125 11 43 11C44.7875 11 46.4712 11.3385 48.051 12.0156C49.6309 12.6927 51.0122 13.6226 52.1948 14.8052C53.3774 15.9878 54.3073 17.3691 54.9844 18.949C55.6615 20.5288 56 22.2125 56 24H53.8333Z" fill="#E8EAED"/>
</svg>
