<svg width="86" height="48" viewBox="0 0 86 48" fill="none" xmlns="http://www.w3.org/2000/svg">
<path d="M50.0667 32C48.2148 32 46.3852 31.5963 44.5778 30.7889C42.7704 29.9815 41.1259 28.837 39.6444 27.3556C38.163 25.8741 37.0185 24.2296 36.2111 22.4222C35.4037 20.6148 35 18.7852 35 16.9333C35 16.6667 35.0889 16.4444 35.2667 16.2667C35.4444 16.0889 35.6667 16 35.9333 16H39.5333C39.7407 16 39.9259 16.0704 40.0889 16.2111C40.2519 16.3519 40.3481 16.5185 40.3778 16.7111L40.9556 19.8222C40.9852 20.0593 40.9778 20.2593 40.9333 20.4222C40.8889 20.5852 40.8074 20.7259 40.6889 20.8444L38.5333 23.0222C38.8296 23.5704 39.1815 24.1 39.5889 24.6111C39.9963 25.1222 40.4444 25.6148 40.9333 26.0889C41.3926 26.5481 41.8741 26.9741 42.3778 27.3667C42.8815 27.7593 43.4148 28.1185 43.9778 28.4444L46.0667 26.3556C46.2 26.2222 46.3741 26.1222 46.5889 26.0556C46.8037 25.9889 47.0148 25.9704 47.2222 26L50.2889 26.6222C50.4963 26.6815 50.6667 26.7889 50.8 26.9444C50.9333 27.1 51 27.2741 51 27.4667V31.0667C51 31.3333 50.9111 31.5556 50.7333 31.7333C50.5556 31.9111 50.3333 32 50.0667 32Z" fill="#E8EAED"/>
</svg>
